<svg version="1.1" viewBox="0.0 0.0 256.0 312.0" fill="none" stroke="none" stroke-linecap="square" stroke-miterlimit="10" xmlns:xlink="http://www.w3.org/1999/xlink" xmlns="http://www.w3.org/2000/svg"><clipPath id="p.0"><path d="m0 0l256.0 0l0 312.0l-256.0 0l0 -312.0z" clip-rule="nonzero"/></clipPath><g clip-path="url(#p.0)"><path fill="#000000" fill-opacity="0.0" d="m0 0l256.0 0l0 312.0l-256.0 0z" fill-rule="evenodd"/><path fill="#cfe2f3" fill-opacity="0.5" d="m127.99959 245.44238c-40.74803 83.39371 -199.66534 0 0 -107.220474c199.66536 107.220474 40.74803 190.61418 0 107.220474z" fill-rule="evenodd"/><path fill="#ffbe42" d="m163.74496 202.922l0 0c19.73439 19.73439 19.73439 51.73018 0 71.46457q-17.866135 17.86615 -35.732285 35.73227q-17.866142 -17.86612 -35.732285 -35.73227l0 0c-19.73439 -19.73439 -19.73439 -51.73018 0 -71.46457l0 0c19.734398 -19.73439 51.73018 -19.73439 71.46457 0z" fill-rule="evenodd"/><path fill="#ffbe42" d="m128.00247 289.20392l0 0c-27.91864 0 -50.551178 -22.632538 -50.551178 -50.551193l0 -104.220474l0 0c0 -13.407005 5.32592 -26.2649 14.806099 -35.745087c9.480186 -9.480179 22.338081 -14.806091 35.74508 -14.806091l0 0l0 0c27.918655 0 50.551193 22.63253 50.551193 50.551178l0 104.220474c0 27.918655 -22.632538 50.551193 -50.551193 50.551193z" fill-rule="evenodd"/><path fill="#434343" d="m128.00247 289.20322l0 0c-27.91864 0 -50.551178 -22.632538 -50.551178 -50.551193l0 0c0 -13.406998 5.32592 -26.264893 14.806099 -35.745087c9.480186 -9.480179 22.338081 -14.806091 35.74508 -14.806091l0 0c27.918655 0 50.551193 22.632538 50.551193 50.551178l0 0c0 27.918655 -22.632538 50.551193 -50.551193 50.551193z" fill-rule="evenodd"/><path fill="#434343" d="m77.45247 210.36955l101.102356 0l0 25.795273l-101.102356 0z" fill-rule="evenodd"/><path fill="#ffbe42" d="m128.00247 262.54498l0 0c-27.91864 0 -50.551178 -22.632538 -50.551178 -50.551178l0 0c0 -13.407013 5.32592 -26.264893 14.806099 -35.745087c9.480186 -9.480179 22.338081 -14.806091 35.74508 -14.806091l0 0c27.918655 0 50.551193 22.632538 50.551193 50.551178l0 0c0 27.91864 -22.632538 50.551178 -50.551193 50.551178z" fill-rule="evenodd"/><path fill="#434343" d="m128.00247 237.08304l0 0c-27.91864 0 -50.551178 -22.632538 -50.551178 -50.551193l0 0c0 -13.406998 5.32592 -26.264893 14.806099 -35.74507c9.480186 -9.480194 22.338081 -14.806107 35.74508 -14.806107l0 0c27.918655 0 50.551193 22.632538 50.551193 50.551178l0 0c0 27.918655 -22.632538 50.551193 -50.551193 50.551193z" fill-rule="evenodd"/><path fill="#ffd966" d="m62.49416 152.11813l9.915661 -14.896957l-1.1387405 -17.858955l16.035683 -7.9432983l7.943306 -16.03569l17.858955 1.1387482l14.896942 -9.915665l14.896942 9.915665l17.858963 -1.1387482l7.9432983 16.03569l16.03569 7.9432983l-1.1387482 17.858955l9.915665 14.896957l-9.915665 14.896942l1.1387482 17.858963l-16.03569 7.9432983l-7.9432983 16.035675l-17.858963 -1.1387329l-14.896942 9.915665l-14.896942 -9.915665l-17.858955 1.1387329l-7.943306 -16.035675l-16.035683 -7.9432983l1.1387405 -17.858963z" fill-rule="evenodd"/><path fill="#ffbe42" d="m128.00444 193.76508l0 0c-32.780495 0 -59.354332 -26.573837 -59.354332 -59.354324l0 0c0 -15.741753 6.2533875 -30.83876 17.384483 -41.969856c11.131096 -11.131096 26.228104 -17.384483 41.96985 -17.384483l0 0c32.780487 0 59.354324 26.573845 59.354324 59.35434l0 0c0 32.780487 -26.573837 59.354324 -59.354324 59.354324z" fill-rule="evenodd"/><path fill="#434343" d="m142.9771 81.471245l0 0c0.67723083 -5.919693 4.00737 -11.211052 9.051605 -14.3823395c5.044235 -3.1712875 11.256119 -3.8789635 16.8844 -1.923523l-2.985733 8.593765l0 0c-3.0189056 -1.0488586 -6.35083 -0.6692734 -9.0564575 1.0317383c-2.7056274 1.7010193 -4.491852 4.539192 -4.8551025 7.7144012z" fill-rule="evenodd"/><path fill="#434343" d="m151.5047 79.5776l0 0c1.2547455 2.1732788 0.51013184 4.95224 -1.663147 6.2069855l0 0c-1.0436401 0.6025543 -2.283905 0.7658386 -3.447937 0.45393372c-1.1640472 -0.31189728 -2.1564941 -1.0734329 -2.7590485 -2.1170807l0 0c-1.2547455 -2.1732788 -0.51013184 -4.95224 1.663147 -6.2069855l0 0c2.1732788 -1.2547455 4.95224 -0.51013184 6.2069855 1.663147z" fill-rule="evenodd"/><path fill="#434343" d="m172.30554 67.56821l0 0c1.2547455 2.1732712 0.5101166 4.95224 -1.6631622 6.2069855l0 0c-1.0436401 0.6025467 -2.283905 0.765831 -3.447937 0.45393372c-1.164032 -0.3119049 -2.1564941 -1.0734406 -2.7590485 -2.1170883l0 0c-1.2547455 -2.1732788 -0.5101166 -4.95224 1.6631622 -6.2069855l0 0c2.1732788 -1.2547455 4.95224 -0.5101242 6.2069855 1.6631546z" fill-rule="evenodd"/><path fill="#434343" d="m113.02077 81.471245l0 0c-0.6772232 -5.919693 -4.0073624 -11.211052 -9.051598 -14.3823395c-5.044235 -3.1712875 -11.256119 -3.8789635 -16.884407 -1.923523l2.9857483 8.593765l0 0c3.018898 -1.0488586 6.35083 -0.6692734 9.0564575 1.0317383c2.7056198 1.7010193 4.491844 4.539192 4.855095 7.7144012z" fill-rule="evenodd"/><path fill="#434343" d="m104.49317 79.5776l0 0c-1.2547455 2.1732788 -0.51013184 4.95224 1.663147 6.2069855l0 0c1.0436478 0.6025543 2.283905 0.7658386 3.4479446 0.45393372c1.164032 -0.31189728 2.1564941 -1.0734329 2.7590408 -2.1170807l0 0c1.2547455 -2.1732788 0.51013184 -4.95224 -1.663147 -6.2069855l0 0c-2.1732788 -1.2547455 -4.95224 -0.51013184 -6.2069855 1.663147z" fill-rule="evenodd"/><path fill="#434343" d="m83.69234 67.56821l0 0c-1.2547455 2.1732712 -0.51013184 4.95224 1.663147 6.2069855l0 0c1.0436478 0.6025467 2.283905 0.765831 3.4479446 0.45393372c1.164032 -0.3119049 2.1564941 -1.0734406 2.7590408 -2.1170883l0 0c1.2547455 -2.1732788 0.51013184 -4.95224 -1.663147 -6.2069855l0 0c-2.1732788 -1.2547455 -4.95224 -0.5101242 -6.2069855 1.6631546z" fill-rule="evenodd"/><path fill="#434343" d="m175.29286 135.76553l0 0c-3.5460663 4.7875977 -9.075302 7.7047424 -15.0289 7.929016c-5.953598 0.22427368 -11.68663 -2.2686157 -15.582825 -6.7758636l6.882065 -5.949066l0 0c2.0898438 2.4176025 5.1649323 3.7547302 8.358322 3.6344452c3.19339 -0.12030029 6.1591644 -1.6849976 8.061188 -4.2529755z" fill-rule="evenodd"/><path fill="#434343" d="m166.96158 133.14188l0 0c0 -2.5092926 2.0341797 -4.5434723 4.5434723 -4.5434723l0 0c1.2050018 0 2.3606567 0.47868347 3.2127075 1.3307495c0.85206604 0.85206604 1.3307495 2.007721 1.3307495 3.2127228l0 0c0 2.5092773 -2.0341644 4.543457 -4.543457 4.543457l0 0c-2.5092926 0 -4.5434723 -2.0341797 -4.5434723 -4.543457z" fill-rule="evenodd"/><path fill="#434343" d="m142.94475 133.14188l0 0c0 -2.5092926 2.0341797 -4.5434723 4.5434723 -4.5434723l0 0c1.2050018 0 2.3606567 0.47868347 3.2127075 1.3307495c0.85206604 0.85206604 1.3307495 2.007721 1.3307495 3.2127228l0 0c0 2.5092773 -2.0341644 4.543457 -4.543457 4.543457l0 0c-2.5092926 0 -4.5434723 -2.0341797 -4.5434723 -4.543457z" fill-rule="evenodd"/><path fill="#434343" d="m143.7876 155.62117l0 0c-3.546051 4.7875977 -9.075287 7.7047424 -15.028885 7.929016c-5.953598 0.22427368 -11.68663 -2.2686005 -15.582832 -6.7758484l6.8820724 -5.949066l0 0c2.0898438 2.4175873 5.1649246 3.7547302 8.358322 3.63443c3.19339 -0.12030029 6.1591644 -1.6849976 8.061188 -4.25296z" fill-rule="evenodd"/><path fill="#434343" d="m135.45633 152.99751l0 0c0 -2.5092926 2.0341797 -4.543457 4.5434723 -4.543457l0 0c1.2050018 0 2.3606567 0.47868347 3.2127075 1.3307495c0.85206604 0.8520508 1.3307495 2.0077057 1.3307495 3.2127075l0 0c0 2.5092926 -2.0341644 4.5434723 -4.543457 4.5434723l0 0c-2.5092926 0 -4.5434723 -2.0341797 -4.5434723 -4.5434723z" fill-rule="evenodd"/><path fill="#434343" d="m111.43951 152.99751l0 0c0 -2.5092926 2.0341797 -4.543457 4.5434647 -4.543457l0 0c1.2050018 0 2.360649 0.47868347 3.2127151 1.3307495c0.85206604 0.8520508 1.3307495 2.0077057 1.3307495 3.2127075l0 0c0 2.5092926 -2.0341797 4.5434723 -4.5434647 4.5434723l0 0c-2.509285 0 -4.5434647 -2.0341797 -4.5434647 -4.5434723z" fill-rule="evenodd"/><path fill="#434343" d="m112.26923 135.76553l0 0c-3.5460587 4.7875977 -9.075287 7.7047424 -15.0288925 7.929016c-5.9536057 0.22427368 -11.68663 -2.2686157 -15.582832 -6.7758636l6.8820724 -5.949066l0 0c2.0898438 2.4176025 5.1649246 3.7547302 8.3583145 3.6344452c3.1933975 -0.12030029 6.1591644 -1.6849976 8.061195 -4.2529755z" fill-rule="evenodd"/><path fill="#434343" d="m103.937965 133.14188l0 0c0 -2.5092926 2.0341797 -4.5434723 4.5434647 -4.5434723l0 0c1.2050018 0 2.360649 0.47868347 3.2127151 1.3307495c0.85206604 0.85206604 1.3307495 2.007721 1.3307495 3.2127228l0 0c0 2.5092773 -2.0341797 4.543457 -4.5434647 4.543457l0 0c-2.509285 0 -4.5434647 -2.0341797 -4.5434647 -4.543457z" fill-rule="evenodd"/><path fill="#434343" d="m79.921135 133.14188l0 0c0 -2.5092926 2.0341797 -4.5434723 4.5434647 -4.5434723l0 0c1.2050018 0 2.360649 0.47868347 3.2127151 1.3307495c0.85206604 0.85206604 1.3307495 2.007721 1.3307495 3.2127228l0 0c0 2.5092773 -2.0341797 4.543457 -4.5434647 4.543457l0 0c-2.509285 0 -4.5434647 -2.0341797 -4.5434647 -4.543457z" fill-rule="evenodd"/></g></svg>