<svg version="1.1" viewBox="0.0 0.0 256.0 312.0" fill="none" stroke="none" stroke-linecap="square" stroke-miterlimit="10" xmlns:xlink="http://www.w3.org/1999/xlink" xmlns="http://www.w3.org/2000/svg"><clipPath id="p.0"><path d="m0 0l256.0 0l0 312.0l-256.0 0l0 -312.0z" clip-rule="nonzero"/></clipPath><g clip-path="url(#p.0)"><path fill="#000000" fill-opacity="0.0" d="m0 0l256.0 0l0 312.0l-256.0 0z" fill-rule="evenodd"/><path fill="#cfe2f3" fill-opacity="0.5" d="m127.99959 245.44194c-40.74803 83.39372 -199.66534 0 0 -107.22046c199.66536 107.22046 40.74803 190.61418 0 107.22046z" fill-rule="evenodd"/><path fill="#ffbe42" d="m163.74496 202.92157l0 0c19.73439 19.73439 19.73439 51.730164 0 71.46457q-17.866135 17.86612 -35.732285 35.73227q-17.866142 -17.86615 -35.732285 -35.73227l0 0c-19.73439 -19.734406 -19.73439 -51.73018 0 -71.46457l0 0c19.734398 -19.734406 51.73018 -19.734406 71.46457 0z" fill-rule="evenodd"/><path fill="#ffbe42" d="m128.00247 289.20346l0 0c-27.91864 0 -50.551178 -22.632538 -50.551178 -50.551178l0 -104.22046l0 0c0 -13.407013 5.32592 -26.2649 14.806099 -35.745087c9.480186 -9.480186 22.338081 -14.806099 35.74508 -14.806099l0 0l0 0c27.918655 0 50.551193 22.63253 50.551193 50.551186l0 104.22046c0 27.91864 -22.632538 50.551178 -50.551193 50.551178z" fill-rule="evenodd"/><path fill="#434343" d="m128.00247 289.2028l0 0c-27.91864 0 -50.551178 -22.632538 -50.551178 -50.551193l0 0c0 -13.407013 5.32592 -26.264908 14.806099 -35.745087c9.480186 -9.480179 22.338081 -14.806091 35.74508 -14.806091l0 0c27.918655 0 50.551193 22.632523 50.551193 50.551178l0 0c0 27.918655 -22.632538 50.551193 -50.551193 50.551193z" fill-rule="evenodd"/><path fill="#434343" d="m77.45247 210.36913l101.102356 0l0 25.795273l-101.102356 0z" fill-rule="evenodd"/><path fill="#ffbe42" d="m128.00247 262.54456l0 0c-27.91864 0 -50.551178 -22.632538 -50.551178 -50.551178l0 0c0 -13.407013 5.32592 -26.264908 14.806099 -35.745087c9.480186 -9.480194 22.338081 -14.806107 35.74508 -14.806107l0 0c27.918655 0 50.551193 22.632538 50.551193 50.551193l0 0c0 27.91864 -22.632538 50.551178 -50.551193 50.551178z" fill-rule="evenodd"/><path fill="#434343" d="m128.00247 237.0826l0 0c-27.91864 0 -50.551178 -22.632538 -50.551178 -50.551178l0 0c0 -13.407013 5.32592 -26.264893 14.806099 -35.745087c9.480186 -9.480179 22.338081 -14.806091 35.74508 -14.806091l0 0c27.918655 0 50.551193 22.632538 50.551193 50.551178l0 0c0 27.91864 -22.632538 50.551178 -50.551193 50.551178z" fill-rule="evenodd"/><path fill="#ffd966" d="m62.49416 152.11769l9.915661 -14.896942l-1.1387405 -17.858963l16.035683 -7.9432983l7.943306 -16.03569l17.858955 1.1387482l14.896942 -9.915665l14.896942 9.915665l17.858963 -1.1387482l7.9432983 16.03569l16.03569 7.9432983l-1.1387482 17.858963l9.915665 14.896942l-9.915665 14.896942l1.1387482 17.858963l-16.03569 7.9432983l-7.9432983 16.03569l-17.858963 -1.1387482l-14.896942 9.915665l-14.896942 -9.915665l-17.858955 1.1387482l-7.943306 -16.03569l-16.035683 -7.9432983l1.1387405 -17.858963z" fill-rule="evenodd"/><path fill="#ffbe42" d="m128.00444 193.76465l0 0c-32.780495 0 -59.354332 -26.573853 -59.354332 -59.35434l0 0c0 -15.741745 6.2533875 -30.838753 17.384483 -41.96985c11.131096 -11.131096 26.228104 -17.384483 41.96985 -17.384483l0 0c32.780487 0 59.354324 26.573845 59.354324 59.354332l0 0c0 32.780487 -26.573837 59.35434 -59.354324 59.35434z" fill-rule="evenodd"/><path fill="#434343" d="m142.9771 81.47081l0 0c0.67723083 -5.919693 4.00737 -11.211052 9.051605 -14.3823395c5.044235 -3.1712875 11.256119 -3.8789635 16.8844 -1.923523l-2.985733 8.593765l0 0c-3.0189056 -1.0488586 -6.35083 -0.6692734 -9.0564575 1.0317383c-2.7056274 1.7010193 -4.491852 4.5392 -4.8551025 7.7144012z" fill-rule="evenodd"/><path fill="#434343" d="m151.5047 79.57716l0 0c1.2547455 2.1732788 0.51013184 4.95224 -1.663147 6.206993l0 0c-1.0436401 0.6025467 -2.283905 0.765831 -3.447937 0.45393372c-1.1640472 -0.3119049 -2.1564941 -1.0734406 -2.7590485 -2.1170883l0 0c-1.2547455 -2.1732788 -0.51013184 -4.95224 1.663147 -6.2069855l0 0c2.1732788 -1.2547455 4.95224 -0.5101242 6.2069855 1.663147z" fill-rule="evenodd"/><path fill="#434343" d="m172.30554 67.56777l0 0c1.2547455 2.1732788 0.5101166 4.95224 -1.6631622 6.2069855l0 0c-1.0436401 0.6025467 -2.283905 0.765831 -3.447937 0.45393372c-1.164032 -0.3119049 -2.1564941 -1.0734406 -2.7590485 -2.1170883l0 0c-1.2547455 -2.1732712 -0.5101166 -4.95224 1.6631622 -6.2069855l0 0c2.1732788 -1.2547455 4.95224 -0.5101242 6.2069855 1.6631546z" fill-rule="evenodd"/><path fill="#434343" d="m113.02077 81.47081l0 0c-0.6772232 -5.919693 -4.0073624 -11.211052 -9.051598 -14.3823395c-5.044235 -3.1712875 -11.256119 -3.8789635 -16.884407 -1.923523l2.9857483 8.593765l0 0c3.018898 -1.0488586 6.35083 -0.6692734 9.0564575 1.0317383c2.7056198 1.7010193 4.491844 4.5392 4.855095 7.7144012z" fill-rule="evenodd"/><path fill="#434343" d="m104.49317 79.57716l0 0c-1.2547455 2.1732788 -0.51013184 4.95224 1.663147 6.206993l0 0c1.0436478 0.6025467 2.283905 0.765831 3.4479446 0.45393372c1.164032 -0.3119049 2.1564941 -1.0734406 2.7590408 -2.1170883l0 0c1.2547455 -2.1732788 0.51013184 -4.95224 -1.663147 -6.2069855l0 0c-2.1732788 -1.2547455 -4.95224 -0.5101242 -6.2069855 1.663147z" fill-rule="evenodd"/><path fill="#434343" d="m83.69234 67.56777l0 0c-1.2547455 2.1732788 -0.51013184 4.95224 1.663147 6.2069855l0 0c1.0436478 0.6025467 2.283905 0.765831 3.4479446 0.45393372c1.164032 -0.3119049 2.1564941 -1.0734406 2.7590408 -2.1170883l0 0c1.2547455 -2.1732712 0.51013184 -4.95224 -1.663147 -6.2069855l0 0c-2.1732788 -1.2547455 -4.95224 -0.5101242 -6.2069855 1.6631546z" fill-rule="evenodd"/><path fill="#434343" d="m126.032455 151.95251l0 0c4.840744 -3.8469543 11.211624 -5.187042 17.191956 -3.6162567l-2.3096313 8.793304l0 0c-3.2092896 -0.8429413 -6.6281586 -0.123794556 -9.225891 1.940628z" fill-rule="evenodd"/><path fill="#434343" d="m133.40062 156.64284l0 0c-0.6493988 2.4237213 -3.1406555 3.862091 -5.564377 3.212677l0 0c-1.1639099 -0.31184387 -2.1562653 -1.073288 -2.7587585 -2.1168213c-0.6025009 -1.0435181 -0.7657776 -2.2836456 -0.4539261 -3.4475555l0 0c0.64940643 -2.4237213 3.1406631 -3.862091 5.5643845 -3.212677l0 0c2.4237213 0.6493988 3.862091 3.1406555 3.212677 5.564377z" fill-rule="evenodd"/><path fill="#434343" d="m146.56813 153.7869l0 0c-0.64941406 2.4237213 -3.1406708 3.862091 -5.564392 3.2126923l0 0c-1.1639099 -0.31185913 -2.1562653 -1.0733032 -2.7587585 -2.1168365c-0.6024933 -1.0435181 -0.7657776 -2.2836456 -0.45391846 -3.4475555l0 0c0.6493988 -2.4237213 3.1406555 -3.8620758 5.564377 -3.212677l0 0c2.4237213 0.6493988 3.862091 3.1406555 3.2126923 5.564377z" fill-rule="evenodd"/><path fill="#434343" d="m133.20592 156.58267l0 0c-0.65049744 2.4278412 -3.1459808 3.8686523 -5.573822 3.2181396l0 0c-1.1658936 -0.31237793 -2.159935 -1.075119 -2.7634506 -2.120407c-0.6035156 -1.0453033 -0.7670746 -2.2875366 -0.45468903 -3.453415l0 0c0.65050507 -2.4278412 3.145996 -3.8686523 5.573822 -3.2181396l0 0c2.4278412 0.65049744 3.8686523 3.145996 3.2181396 5.573822z" fill-rule="evenodd"/><path fill="#434343" d="m131.54704 151.95251l0 0c-4.8407364 -3.8469543 -11.211624 -5.187042 -17.191956 -3.6162567l2.3096313 8.793304l0 0c3.209282 -0.8429413 6.6281586 -0.123794556 9.225891 1.940628z" fill-rule="evenodd"/><path fill="#434343" d="m124.17887 156.64284l0 0c0.64940643 2.4237213 3.1406631 3.862091 5.5643845 3.212677l0 0c1.1639099 -0.31184387 2.1562653 -1.073288 2.7587585 -2.1168213c0.6024933 -1.0435181 0.7657776 -2.2836456 0.45391846 -3.4475555l0 0c-0.6493988 -2.4237213 -3.1406555 -3.862091 -5.564377 -3.212677l0 0c-2.4237213 0.6493988 -3.862091 3.1406555 -3.2126846 5.564377z" fill-rule="evenodd"/><path fill="#434343" d="m111.011375 153.7869l0 0c0.6493988 2.4237213 3.1406631 3.862091 5.564377 3.2126923l0 0c1.1639099 -0.31185913 2.156273 -1.0733032 2.7587662 -2.1168365c0.6024933 -1.0435181 0.7657776 -2.2836456 0.45391846 -3.4475555l0 0c-0.6493988 -2.4237213 -3.1406631 -3.8620758 -5.564377 -3.212677l0 0c-2.4237213 0.6493988 -3.862091 3.1406555 -3.2126846 5.564377z" fill-rule="evenodd"/><path fill="#434343" d="m124.37357 156.58267l0 0c0.65050507 2.4278412 3.145996 3.8686523 5.5738297 3.2181396l0 0c1.1658936 -0.31237793 2.1599274 -1.075119 2.763443 -2.120407c0.6035309 -1.0453033 0.7670746 -2.2875366 0.45469666 -3.453415l0 0c-0.6505127 -2.4278412 -3.145996 -3.8686523 -5.5738297 -3.2181396l0 0c-2.4278336 0.65049744 -3.8686447 3.145996 -3.2181396 5.573822z" fill-rule="evenodd"/><path fill="#434343" d="m87.07972 136.80798l0 0c0 -5.1923523 4.2092285 -9.401581 9.401573 -9.401581l0 0c2.493454 0 4.884781 0.9905243 6.6479187 2.753662c1.7631378 1.7631378 2.753662 4.1544647 2.753662 6.6479187l0 0c0 5.192337 -4.2092285 9.401566 -9.401581 9.401566l0 0c-5.1923447 0 -9.401573 -4.2092285 -9.401573 -9.401566z" fill-rule="evenodd"/><path fill="#434343" d="m150.10323 136.80798l0 0c0 -5.1923523 4.2092285 -9.401581 9.401581 -9.401581l0 0c2.493454 0 4.884781 0.9905243 6.6479187 2.753662c1.7631378 1.7631378 2.753662 4.1544647 2.753662 6.6479187l0 0c0 5.192337 -4.2092285 9.401566 -9.401581 9.401566l0 0c-5.1923523 0 -9.401581 -4.2092285 -9.401581 -9.401566z" fill-rule="evenodd"/></g></svg>