<svg version="1.1" viewBox="0.0 0.0 128.0 128.0" fill="none" stroke="none" stroke-linecap="square" stroke-miterlimit="10" xmlns:xlink="http://www.w3.org/1999/xlink" xmlns="http://www.w3.org/2000/svg"><clipPath id="p.0"><path d="m0 0l128.0 0l0 128.0l-128.0 0l0 -128.0z" clip-rule="nonzero"/></clipPath><g clip-path="url(#p.0)"><path fill="#000000" fill-opacity="0.0" d="m0 0l128.0 0l0 128.0l-128.0 0z" fill-rule="evenodd"/><path fill="#e8763d" d="m16.164661 36.42286l47.669422 -27.5335l47.968224 27.665466l-0.015594482 55.01764l-47.669426 27.5335l-47.968224 -27.665466z" fill-rule="evenodd"/><path stroke="#e8763d" stroke-width="12.0" stroke-linejoin="round" stroke-linecap="butt" d="m16.164661 36.42286l47.669422 -27.5335l47.968224 27.665466l-0.015594482 55.01764l-47.669426 27.5335l-47.968224 -27.665466z" fill-rule="evenodd"/><path fill="#ffbe42" d="m41.890472 25.706776l22.031769 -12.679381l22.10968 12.72886l-0.046958923 25.336348l-22.031769 12.679382l-22.109684 -12.728859z" fill-rule="evenodd"/><path stroke="#e8763d" stroke-width="4.0" stroke-linejoin="round" stroke-linecap="butt" d="m41.890472 25.706776l22.031769 -12.679381l22.10968 12.72886l-0.046958923 25.336348l-22.031769 12.679382l-22.109684 -12.728859z" fill-rule="evenodd"/><path fill="#ffbe42" d="m19.833822 63.7905l22.031767 -12.679382l22.109684 12.728859l-0.046962738 25.336346l-22.031769 12.679382l-22.109682 -12.728859z" fill-rule="evenodd"/><path stroke="#e8763d" stroke-width="4.0" stroke-linejoin="round" stroke-linecap="butt" d="m19.833822 63.7905l22.031767 -12.679382l22.109684 12.728859l-0.046962738 25.336346l-22.031769 12.679382l-22.109682 -12.728859z" fill-rule="evenodd"/><path fill="#ffbe42" d="m64.073166 63.791157l22.031769 -12.679382l22.109688 12.728859l-0.046966553 25.336353l-22.031769 12.679375l-22.10968 -12.728859z" fill-rule="evenodd"/><path stroke="#e8763d" stroke-width="4.0" stroke-linejoin="round" stroke-linecap="butt" d="m64.073166 63.791157l22.031769 -12.679382l22.109688 12.728859l-0.046966553 25.336353l-22.031769 12.679375l-22.10968 -12.728859z" fill-rule="evenodd"/></g></svg>