<svg version="1.1" viewBox="0.0 0.0 448.0 128.0" fill="none" stroke="none" stroke-linecap="square" stroke-miterlimit="10" xmlns:xlink="http://www.w3.org/1999/xlink" xmlns="http://www.w3.org/2000/svg"><clipPath id="p.0"><path d="m0 0l448.0 0l0 128.0l-448.0 0l0 -128.0z" clip-rule="nonzero"/></clipPath><g clip-path="url(#p.0)"><path fill="#000000" fill-opacity="0.0" d="m0 0l448.0 0l0 128.0l-448.0 0z" fill-rule="evenodd"/><path fill="#e8763d" d="m16.164661 36.42286l47.669422 -27.5335l47.968224 27.665466l-0.015594482 55.01764l-47.669426 27.5335l-47.968224 -27.665466z" fill-rule="evenodd"/><path stroke="#e8763d" stroke-width="12.0" stroke-linejoin="round" stroke-linecap="butt" d="m16.164661 36.42286l47.669422 -27.5335l47.968224 27.665466l-0.015594482 55.01764l-47.669426 27.5335l-47.968224 -27.665466z" fill-rule="evenodd"/><path fill="#ffbe42" d="m41.890472 25.706776l22.031769 -12.679381l22.10968 12.72886l-0.046958923 25.336348l-22.031769 12.679382l-22.109684 -12.728859z" fill-rule="evenodd"/><path stroke="#e8763d" stroke-width="4.0" stroke-linejoin="round" stroke-linecap="butt" d="m41.890472 25.706776l22.031769 -12.679381l22.10968 12.72886l-0.046958923 25.336348l-22.031769 12.679382l-22.109684 -12.728859z" fill-rule="evenodd"/><path fill="#ffbe42" d="m19.833822 63.7905l22.031767 -12.679382l22.109684 12.728859l-0.046962738 25.336346l-22.031769 12.679382l-22.109682 -12.728859z" fill-rule="evenodd"/><path stroke="#e8763d" stroke-width="4.0" stroke-linejoin="round" stroke-linecap="butt" d="m19.833822 63.7905l22.031767 -12.679382l22.109684 12.728859l-0.046962738 25.336346l-22.031769 12.679382l-22.109682 -12.728859z" fill-rule="evenodd"/><path fill="#ffbe42" d="m64.073166 63.791157l22.031769 -12.679382l22.109688 12.728859l-0.046966553 25.336353l-22.031769 12.679375l-22.10968 -12.728859z" fill-rule="evenodd"/><path stroke="#e8763d" stroke-width="4.0" stroke-linejoin="round" stroke-linecap="butt" d="m64.073166 63.791157l22.031769 -12.679382l22.109688 12.728859l-0.046966553 25.336353l-22.031769 12.679375l-22.10968 -12.728859z" fill-rule="evenodd"/><defs><linearGradient id="p.1" gradientUnits="userSpaceOnUse" gradientTransform="matrix(17.34015866023736 0.0 0.0 17.34015866023736 0.0 0.0)" spreadMethod="pad" x1="7.843065491197667" y1="7.27721802493317" x2="25.183224151435027" y2="7.27721802493317"><stop offset="0.0" stop-color="#e8763d"/><stop offset="0.19" stop-color="#e8763d"/><stop offset="0.8" stop-color="#ffbe42"/><stop offset="1.0" stop-color="#ffbe42"/></linearGradient></defs><path fill="url(#p.1)" d="m160.83725 41.551426c3.35466 0 5.747238 0.62509537 7.1777344 1.8752861c1.4431305 1.2501907 2.1647034 3.246666 2.1647034 5.989437c0 5.013523 -3.734436 7.5202866 -11.203339 7.5202866l-0.58865356 0l0 -15.38501zm0 29.258305c3.35466 0 5.747238 0.54855347 7.1777344 1.6456604c1.4431305 1.0971146 2.1647034 3.0170517 2.1647034 5.7598114c0 2.742775 -0.77853394 4.7456284 -2.3356018 6.0085754c-1.5570831 1.2501984 -4.0066223 1.8752899 -7.348633 1.8752899l-2.1077576 0l0 -15.289337zm-22.74849 -48.31735c-0.8481598 0 -1.4114838 0.14032745 -1.6899872 0.42098236c-0.26585388 0.26789856 -0.3987732 0.83558655 -0.3987732 1.7030678l0 75.24112c0 1.4925766 0.42408752 2.6917343 1.2722473 3.5974884c0.8608246 0.8929901 1.9495087 1.3394928 3.2660522 1.3394928l27.533646 0c8.63353 0 15.266922 -1.843399 19.900177 -5.530182c4.6332397 -3.6867905 6.9498596 -8.681175 6.9498596 -14.98317c0 -6.314743 -1.2848969 -11.194313 -3.8547058 -14.638718c-2.569809 -3.4444046 -5.759918 -5.874626 -9.5703125 -7.290661c7.0005035 -4.23534 10.500763 -10.42889 10.500763 -18.58065c0 -14.185846 -9.101929 -21.278769 -27.30577 -21.27877z" fill-rule="evenodd"/><defs><linearGradient id="p.2" gradientUnits="userSpaceOnUse" gradientTransform="matrix(17.34015866023736 0.0 0.0 17.34015866023736 0.0 0.0)" spreadMethod="pad" x1="7.843065491197667" y1="7.27721802493317" x2="25.183224151435027" y2="7.27721802493317"><stop offset="0.0" stop-color="#e8763d"/><stop offset="0.19" stop-color="#e8763d"/><stop offset="0.8" stop-color="#ffbe42"/><stop offset="1.0" stop-color="#ffbe42"/></linearGradient></defs><path fill="url(#p.2)" d="m212.87646 45.416813c-6.684021 0 -10.0260315 0.43374252 -10.0260315 1.3012199l0 34.673676c0 8.776855 1.7849274 15.066078 5.3548126 18.867691c3.5825348 3.8015976 9.146225 5.7024 16.691086 5.7024c5.4434204 0 10.538727 -2.11129 15.285904 -6.3338776l0.11393738 -0.11481476c2.4938507 4.2991257 6.342224 6.4486923 11.5451355 6.4486923c2.6457672 0 4.7471924 -1.7221985 6.3042603 -5.166603c1.0886841 -2.6662292 1.6330261 -5.2941895 1.6330261 -7.8838654c0 -5.090065 -1.322876 -7.6350937 -3.9686432 -7.6350937l-3.0381927 0l0 -38.558205c0 -0.7909355 -3.3040314 -1.186409 -9.912109 -1.186409c-6.608078 0 -9.912109 0.39547348 -9.912109 1.186409l0 37.735374c-2.3292847 1.6456604 -4.43071 2.4684906 -6.3042603 2.4684906c-2.481186 0 -3.7217865 -1.9582138 -3.7217865 -5.874626l0 -34.32924c0 -0.8674774 -3.348343 -1.3012199 -10.045029 -1.3012199z" fill-rule="evenodd"/><defs><linearGradient id="p.3" gradientUnits="userSpaceOnUse" gradientTransform="matrix(17.34015866023736 0.0 0.0 17.34015866023736 0.0 0.0)" spreadMethod="pad" x1="7.843065491197667" y1="7.27721802493317" x2="25.183224151435027" y2="7.27721802493317"><stop offset="0.0" stop-color="#e8763d"/><stop offset="0.19" stop-color="#e8763d"/><stop offset="0.8" stop-color="#ffbe42"/><stop offset="1.0" stop-color="#ffbe42"/></linearGradient></defs><path fill="url(#p.3)" d="m268.06403 46.010014c-1.4811096 0 -2.2216797 4.5861664 -2.2216797 13.758488c0 3.3678627 0.27218628 5.051796 0.8165283 5.051796l20.412872 -0.70801544l-22.273773 26.215744c-0.1519165 0.16584015 -0.22787476 0.6633682 -0.22787476 1.4925766c0 0.816452 0.8165283 3.1828842 2.4495544 7.099304c1.6330261 3.9164124 3.0318604 5.874626 4.1965027 5.874626l37.331818 0c0.9367981 0 1.5950623 -1.3713837 1.974823 -4.114151c0.39245605 -2.742775 0.58865356 -5.172989 0.58865356 -7.290657c0 -5.5620728 -0.6203003 -8.343117 -1.8609009 -8.343117l-20.29892 1.4160309l22.634552 -28.703373c0.07595825 -0.076545715 0.11392212 -0.32530594 0.11392212 -0.7462883c0 -0.43374252 -0.9367676 -2.3728142 -2.8103333 -5.817219c-1.8609009 -3.4571648 -3.063507 -5.1857452 -3.6078491 -5.1857452z" fill-rule="evenodd"/><defs><linearGradient id="p.4" gradientUnits="userSpaceOnUse" gradientTransform="matrix(17.34015866023736 0.0 0.0 17.34015866023736 0.0 0.0)" spreadMethod="pad" x1="7.843065491197667" y1="7.27721802493317" x2="25.183224151435027" y2="7.27721802493317"><stop offset="0.0" stop-color="#e8763d"/><stop offset="0.19" stop-color="#e8763d"/><stop offset="0.8" stop-color="#ffbe42"/><stop offset="1.0" stop-color="#ffbe42"/></linearGradient></defs><path fill="url(#p.4)" d="m344.48175 63.174633c4.3547363 0 6.5321045 4.037609 6.5321045 12.112827c0 5.7151566 -1.0886841 9.3573 -3.2660522 10.926422c-1.2406006 0.94402313 -2.4685364 1.4160309 -3.6838074 1.4160309c-1.2026062 0 -2.3482666 -0.23600769 -3.4369507 -0.70801544l0 -22.446045c1.2406006 -0.8674774 2.5254822 -1.3012199 3.8547058 -1.3012199zm-13.956696 -41.73471c-6.7220154 0 -10.083008 0.47201157 -10.083008 1.4160328l0 76.88678c6.0637207 4.146042 13.703522 6.219063 22.919373 6.219063c9.228516 0 16.349274 -2.8384476 21.362305 -8.515335c5.013031 -5.6768875 7.5195312 -13.77124 7.5195312 -24.283058c0 -18.88044 -8.165161 -28.320663 -24.495453 -28.320663c-1.4051514 0 -3.7787476 0.3125496 -7.120758 0.93764496l0 -22.809616c0 -1.020565 -3.36734 -1.5308475 -10.10199 -1.5308475z" fill-rule="evenodd"/><defs><linearGradient id="p.5" gradientUnits="userSpaceOnUse" gradientTransform="matrix(17.34015866023736 0.0 0.0 17.34015866023736 0.0 0.0)" spreadMethod="pad" x1="7.843065491197667" y1="7.27721802493317" x2="25.183224151435027" y2="7.27721802493317"><stop offset="0.0" stop-color="#e8763d"/><stop offset="0.19" stop-color="#e8763d"/><stop offset="0.8" stop-color="#ffbe42"/><stop offset="1.0" stop-color="#ffbe42"/></linearGradient></defs><path fill="url(#p.5)" d="m387.10913 45.302c-7.114441 0 -10.671661 0.43374252 -10.671661 1.3012199l19.8432 53.483963l-10.158966 24.684898c-0.1519165 0.39546967 1.5570679 0.7271576 5.126953 0.99505615c3.58255 0.28064728 7.456238 0.42098236 11.621094 0.42098236c4.164856 0 6.2852783 -0.23600769 6.361206 -0.7080231l27.419708 -78.64725c0.4683838 -1.0205612 -4.475006 -1.5308456 -14.83017 -1.5308456c-4.506653 0 -6.9118958 0.31254578 -7.2157288 0.93764496l-8.0512085 27.995358l-8.411987 -27.746597c-0.22787476 -0.7909355 -3.905365 -1.1864052 -11.03244 -1.1864052z" fill-rule="evenodd"/></g></svg>