<svg version="1.1" viewBox="0.0 0.0 32.0 32.0" fill="none" stroke="none" stroke-linecap="square" stroke-miterlimit="10" xmlns:xlink="http://www.w3.org/1999/xlink" xmlns="http://www.w3.org/2000/svg"><clipPath id="p.0"><path d="m0 0l32.0 0l0 32.0l-32.0 0l0 -32.0z" clip-rule="nonzero"/></clipPath><g clip-path="url(#p.0)"><path fill="#000000" fill-opacity="0.0" d="m0 0l32.0 0l0 32.0l-32.0 0z" fill-rule="evenodd"/><path fill="#cc0000" d="m0 16.0l0 0c0 -8.8365555 7.163444 -16.0 16.0 -16.0l0 0c4.2434635 0 8.313126 1.6857095 11.313709 4.6862917c3.0005817 3.0005817 4.6862907 7.070245 4.6862907 11.313708l0 0c0 8.8365555 -7.1634445 16.0 -16.0 16.0l0 0c-8.8365555 0 -16.0 -7.1634445 -16.0 -16.0z" fill-rule="evenodd"/><path fill="#ffffff" d="m2.96063 15.144345l0 0c0 -0.7798605 0.6322017 -1.4120617 1.4120617 -1.4120617l23.254616 0c0.37450218 0 0.73366547 0.14877033 0.99847794 0.4135828c0.26481438 0.26481342 0.41358376 0.6239767 0.41358376 0.9984789l0 1.7113104c0 0.77985954 -0.63220024 1.4120617 -1.4120617 1.4120617l-23.254616 0c-0.77986 0 -1.4120617 -0.63220215 -1.4120617 -1.4120617z" fill-rule="evenodd"/></g></svg>