<svg version="1.1" viewBox="0.0 0.0 256.0 312.0" fill="none" stroke="none" stroke-linecap="square" stroke-miterlimit="10" xmlns:xlink="http://www.w3.org/1999/xlink" xmlns="http://www.w3.org/2000/svg"><clipPath id="p.0"><path d="m0 0l256.0 0l0 312.0l-256.0 0l0 -312.0z" clip-rule="nonzero"/></clipPath><g clip-path="url(#p.0)"><path fill="#000000" fill-opacity="0.0" d="m0 0l256.0 0l0 312.0l-256.0 0z" fill-rule="evenodd"/><path fill="#e8763d" d="m167.662 96.96524c-0.5242157 0 -0.89805603 0.5750046 -1.1215668 1.7250137c-0.1259613 0.6217346 -0.18894958 1.2211227 -0.18894958 1.7981567c0 0.57297516 0.036575317 1.0971832 0.10971069 1.5726242c0.17474365 1.1459427 0.4754486 1.7189102 0.9021301 1.7189102l7.454666 -5.340576E-5l-8.7651825 13.598991c-0.07720947 0.09752655 -0.11581421 0.33525085 -0.11581421 0.7131653c0 0.3738556 0.29258728 1.3166199 0.8777313 2.8282852c0.5892334 1.5075989 0.9976196 2.2613983 1.2251892 2.2613983l14.567993 -1.0681152E-4c0.5729675 0 0.9955902 -0.62377167 1.2678528 -1.8713074c0.15034485 -0.6989441 0.2255249 -1.3592834 0.2255249 -1.9810181c0 -0.6258011 -0.04876709 -1.227211 -0.14628601 -1.8042526c-0.22756958 -1.1987686 -0.61564636 -1.7981491 -1.1642303 -1.7981491l-6.924362 5.340576E-5l8.759079 -13.29422c0 -0.27226257 -0.04876709 -0.70910645 -0.14628601 -1.310524c-0.45106506 -2.7713852 -1.4385071 -4.157074 -2.9623718 -4.1570663z" fill-rule="evenodd"/><path fill="#e8763d" d="m187.29034 82.89212c-0.77438354 0.06046295 -1.2603302 0.9529648 -1.4578552 2.6774979c-0.11439514 0.9329376 -0.13830566 1.8255997 -0.071746826 2.6779861c0.066085815 0.8463745 0.18057251 1.6165009 0.34346008 2.310379c0.3902893 1.6726074 0.90060425 2.4842987 1.5309143 2.435089l11.012451 -0.8598099l-11.379944 21.098946c-0.10281372 0.15296936 -0.13241577 0.50857544 -0.08883667 1.0668259c0.043121338 0.5522461 0.5840759 1.9111252 1.6228485 4.0766296c1.0443115 2.1590424 1.7345581 3.2254333 2.0707245 3.1991882l21.520645 -1.6802444c0.8464203 -0.066085815 1.3987732 -1.0362396 1.6570892 -2.910469c0.14149475 -1.049797 0.1763916 -2.033905 0.10467529 -2.9523163c-0.07217407 -0.9244156 -0.21357727 -1.80719 -0.42419434 -2.648323c-0.47442627 -1.744545 -1.1168518 -2.5851822 -1.9272461 -2.5219116l-10.229065 0.798645l11.406097 -20.648033c-0.031402588 -0.40218353 -0.15382385 -1.0418472 -0.3672638 -1.9189911c-0.9859772 -4.041809 -2.6045227 -5.9748306 -4.8556366 -5.7990723z" fill-rule="evenodd"/><path fill="#e8763d" d="m212.8636 68.72043c-0.99017334 0.19602203 -1.4813232 1.4219131 -1.473465 3.677681c-0.0054473877 1.2214661 0.09970093 2.3771667 0.31547546 3.4670944c0.21426392 1.0822601 0.47937012 2.058731 0.7953186 2.9294205c0.75857544 2.0991669 1.5408325 3.0689774 2.3467865 2.9094238l14.081207 -2.7876205l-11.471451 28.963974c-0.109375 0.21308899 -0.09339905 0.6765442 0.047912598 1.3903732c0.13980103 0.70615387 1.0449982 2.377472 2.7155762 5.0139694c1.6767426 2.627304 2.7300415 3.898407 3.1598816 3.8133087l27.51764 -5.4475937c1.0822754 -0.21425629 1.6473083 -1.5504913 1.6950836 -4.008705c0.022644043 -1.3764191 -0.08229065 -2.6518097 -0.31477356 -3.8261719c-0.23400879 -1.1820374 -0.55101013 -2.2997818 -0.9510193 -3.3532486c-0.8781128 -2.1791992 -1.8352814 -3.1662292 -2.8715057 -2.96109l-13.079514 2.5893173l11.573914 -28.386024c-0.1018219 -0.51426697 -0.35728455 -1.3211517 -0.76638794 -2.4206696c-1.8883514 -5.066063 -4.2717285 -7.314186 -7.1501465 -6.7443542z" fill-rule="evenodd"/></g></svg>